<?xml version="1.0" encoding="UTF-8"?>
<svg id="Layer_1" xmlns="http://www.w3.org/2000/svg" version="1.1" viewBox="0 0 48 48">
  <!-- Generator: Adobe Illustrator 29.8.1, SVG Export Plug-In . SVG Version: 2.1.1 Build 2)  -->
  <defs>
    <style>
      .st0 {
        fill: #fff;
        fill-rule: evenodd;
      }
    </style>
  </defs>
  <path class="st0" d="M26.33,22.07c-5.37.41-5.99-3.4-3.78-4.97,2.04-1.46,5.38-.24,4.37,4.46-.06.29-.3.49-.59.51"/>
  <path class="st0" d="M16.4,6.04c-8.36,4.7-8.67,14.81-3.74,22.1-7.77-2.76-9.45-12.86-6.05-18.88,1.81-3.21,5.05-5.26,9.59-4.43.28.05.48.26.53.53.05.28-.08.54-.32.68"/>
  <path class="st0" d="M29.72,5.12c6.93,3.37,9.99,12.04,4.2,17.17-1.79,1.59-4.17,2.7-6.23,3.32-.29.09-.48.36-.46.66.02.3.23.55.53.61,3.1.57,8.28.73,12.15-3.29,6.78-7.05,1.67-23-10.07-19.69-.27.07-.45.29-.47.57-.03.28.12.53.36.65"/>
  <path class="st0" d="M3.09,22c1.9,8.21,11.77,12.53,19.71,11.01-8.13,8.43-25.84,1.84-20.96-11.09.1-.27.36-.44.65-.42.29.02.53.22.59.5"/>
  <path class="st0" d="M31.77,40.36c-2.73-.48-5.3-1.61-7.44-3.37-.24-.2-.59-.2-.83,0-2.14,1.76-4.71,2.89-7.44,3.37-.25.04-.45.22-.52.47-.07.25,0,.5.2.67,2.19,1.9,5.04,3.05,8.17,3.05s5.98-1.15,8.17-3.05c.19-.17.27-.42.2-.67-.07-.25-.26-.42-.52-.47"/>
  <path class="st0" d="M44.91,22c-1.9,8.21-11.77,12.53-19.71,11.01,8.13,8.43,25.84,1.84,20.96-11.09-.1-.27-.36-.44-.65-.42-.29.02-.53.22-.59.5"/>
  <path class="st0" d="M25.49,30.3c-7.05-.35-13.13-4.2-13.13-11.42,0-6.57,3.76-11.73,10.52-12.44,8.82-.93,13.38,9.07,8.67,14.43-.2.22-.51.29-.78.16-.27-.13-.41-.42-.36-.71.71-3.7-2.5-7.13-6.7-6.9-8.21.45-6.89,11.7,2.06,15.63.29.13.45.44.37.75-.07.31-.35.52-.67.5"/>
</svg>